<?xml version="1.0" standalone="no"?>
<!DOCTYPE svg PUBLIC "-//W3C//DTD SVG 20010904//EN"
 "http://www.w3.org/TR/2001/REC-SVG-20010904/DTD/svg10.dtd">
<svg version="1.0" xmlns="http://www.w3.org/2000/svg"
 width="299.000000pt" height="302.000000pt" viewBox="0 0 299.000000 302.000000"
 preserveAspectRatio="xMidYMid meet">

<g transform="translate(0.000000,302.000000) scale(0.100000,-0.100000)"
fill="#000000" stroke="none">
<path d="M2080 2820 c-751 -56 -1409 -506 -1736 -1185 -76 -158 -127 -305
-159 -462 -38 -185 -45 -276 -45 -609 0 -306 0 -312 23 -344 12 -18 35 -43 50
-54 l28 -21 1237 0 c1223 0 1237 0 1272 20 21 12 44 39 58 65 l22 45 -2 1220
c-3 1207 -3 1220 -23 1255 -12 19 -36 43 -55 55 -33 19 -53 20 -300 21 -146 1
-312 -2 -370 -6z m-500 -609 l0 -109 -242 -105 c-134 -58 -310 -135 -393 -171
l-150 -65 -3 -146 -3 -146 -72 -33 c-39 -18 -82 -36 -94 -40 l-23 -7 0 254 0
254 118 51 c221 95 577 250 712 310 74 33 138 60 143 61 4 1 7 -48 7 -108z
m366 -541 c23 -58 119 -301 214 -540 95 -239 175 -443 178 -453 4 -16 -5 -17
-118 -15 l-123 3 -218 550 c-121 303 -219 554 -219 558 0 4 55 6 122 5 l122
-3 42 -105z m761 98 c-3 -7 -53 -133 -112 -280 l-107 -268 -124 0 c-68 0 -124
2 -124 6 0 4 138 348 217 542 4 9 40 12 130 12 96 0 124 -3 120 -12z m-1397
-346 c0 -103 -1 -109 -22 -119 -127 -58 -679 -293 -687 -293 -16 0 -15 206 1
217 23 15 683 302 696 302 9 1 12 -27 12 -107z m263 -623 c-4 -4 -181 -82
-393 -174 -212 -92 -429 -187 -482 -210 l-98 -43 0 227 0 227 85 42 c47 23 90
42 95 42 6 0 10 -46 10 -115 0 -63 2 -115 4 -115 2 0 179 76 392 169 l389 168
3 -105 c1 -58 -1 -109 -5 -113z"/>
</g>
</svg>
